<?xml version="1.0" encoding="UTF-8"?>
<svg width="122px" height="35px" viewBox="0 0 122 35" version="1.1" xmlns="http://www.w3.org/2000/svg" xmlns:xlink="http://www.w3.org/1999/xlink">
    <defs>
        <polygon id="path-1" points="0.111430748 32.8898776 81.8928756 32.8898776 81.8928756 0.0119714555 0.111430748 0.0119714555"></polygon>
    </defs>
    <g id="Page-1" stroke="none" stroke-width="1" fill="none" fill-rule="evenodd">
        <g id="Aidon_logo">
            <path d="M23.6786137,0 L33,22.7677258 L33,0 L23.6786137,0 Z M0,0 L0,34 L8.38986017,34 L23.6786137,0 L0,0 Z M18.5627119,22.668251 L27.9977363,22.668251 L23.4927897,11.6874363 L18.5627119,22.668251 Z M16.4668054,27.3128965 L15.7571962,28.8788036 L13.4655128,34 L32.6507734,34 L30.5418516,28.8788036 L29.9006002,27.3128965 L16.4668054,27.3128965 Z" id="Fill-1" fill="#000000" fill-rule="nonzero"></path>
            <g id="Group-4" transform="translate(40.000000, 2.000000)">
                <g id="Fill-2-Clipped">
                    <g>
                        <mask id="mask-2" fill="white">
                            <use xlink:href="#path-1"></use>
                        </mask>
                        <g id="path-1"></g>
                        <path d="M6.02647565,3.15433477 C6.02647565,1.46579605 4.84344435,0.340295234 3.06889741,0.340295234 C1.29446204,0.340295234 0.111430748,1.46579605 0.111430748,3.15433477 C0.111430748,4.79583866 1.29446204,5.9683743 3.06889741,5.9683743 C4.75251918,5.9683743 6.02647565,4.79583866 6.02647565,3.15433477 Z M0.748464762,32.4677257 L5.3895532,32.4677257 L5.3895532,9.39214156 L0.748464762,9.39214156 L0.748464762,32.4677257 Z M27.1427586,0.0119714555 L27.1427586,12.5815397 C25.3683233,10.3771129 22.5927069,8.97009313 19.3167233,8.97009313 C12.719126,8.97009313 8.03263075,13.9885595 8.03263075,20.7892892 C8.03263075,27.8714228 12.9922362,32.8898891 19.9082389,32.8898891 C26.8243532,32.8898891 31.7838471,27.8714228 31.7838471,20.9299336 L31.7838471,0.0119714555 L27.1427586,0.0119714555 Z M19.9536457,28.7156347 C15.8131478,28.7156347 12.8101627,25.4794317 12.8101627,20.9299336 C12.8101627,16.4274704 15.8131478,13.1443476 19.9536457,13.1443476 C24.1397736,13.1443476 27.1427586,16.4274704 27.1427586,20.9299336 C27.1427586,25.4794317 24.1397736,28.7156347 19.9536457,28.7156347 Z M38.1628893,12.3470556 C35.887975,14.5982872 34.750462,17.4593615 34.750462,20.9299336 C34.750462,24.4007357 35.887975,27.2616951 38.1628893,29.5130417 C40.3925083,31.7641583 43.2590498,32.8898891 46.7171069,32.8898891 C50.1750525,32.8898891 53.041594,31.7641583 55.2712131,29.5130417 C57.5007205,27.2616951 58.6382335,24.4007357 58.6382335,20.9299336 C58.6382335,17.4593615 57.5007205,14.5982872 55.2712131,12.3470556 C53.041594,10.0957089 50.1750525,8.97009313 46.7171069,8.97009313 C43.2590498,8.97009313 40.3925083,10.0957089 38.1628893,12.3470556 Z M46.671477,13.1443476 C48.7646525,13.1443476 50.4936811,13.8948348 51.8585627,15.3486594 C53.1781491,16.802599 53.8605899,18.678702 53.8605899,20.9299336 C53.8605899,23.2282001 53.1781491,25.0573833 51.8585627,26.5113229 C50.4936811,27.9651475 48.7646525,28.7156347 46.671477,28.7156347 C44.6239314,28.7156347 42.8950144,27.9651475 41.5755396,26.5113229 C40.2104348,25.0573833 39.527994,23.2282001 39.527994,20.9299336 C39.527994,18.678702 40.2104348,16.802599 41.5755396,15.3486594 C42.8950144,13.8948348 44.6239314,13.1443476 46.671477,13.1443476 Z M73.0202525,8.97009313 C69.8353056,8.97009313 67.469243,10.2833882 65.9676947,12.8629436 L65.9676947,9.39225656 L61.3267178,9.39225656 L61.3267178,32.4677257 L65.9676947,32.4677257 L65.9676947,18.960106 C65.9676947,15.2549347 68.1973137,12.8160238 71.6552593,12.8160238 C74.9768729,12.8160238 77.2062688,15.2549347 77.2062688,18.960106 L77.2062688,32.4677257 L81.8928756,32.4677257 L81.8928756,18.3034584 C81.8928756,15.5363387 81.0739913,13.2851071 79.3903695,11.5497635 C77.7068593,9.81430499 75.6137954,8.97009313 73.0202525,8.97009313 Z" id="Fill-2" fill="#000000" fill-rule="nonzero" mask="url(#mask-2)"></path>
                    </g>
                </g>
            </g>
        </g>
    </g>
</svg>